<mxfile host="app.diagrams.net" modified="2024-01-20T12:58:17.912Z" agent="Mozilla/5.0 (Windows NT 10.0; Win64; x64) AppleWebKit/537.36 (KHTML, like Gecko) Chrome/120.0.0.0 Safari/537.36" etag="5wkU_OeSjbsNi7WkBjxk" version="22.1.21" type="device">
  <diagram name="Страница — 1" id="Iuc0BcMgtrWhIU6IL4bO">
    <mxGraphModel dx="1434" dy="738" grid="1" gridSize="10" guides="1" tooltips="1" connect="1" arrows="1" fold="1" page="1" pageScale="1" pageWidth="827" pageHeight="1169" math="0" shadow="0">
      <root>
        <mxCell id="0" />
        <mxCell id="1" parent="0" />
        <mxCell id="6jrUPelpAg_V0vbnMmDs-33" value="" style="edgeStyle=orthogonalEdgeStyle;rounded=0;orthogonalLoop=1;jettySize=auto;html=1;" parent="1" source="6jrUPelpAg_V0vbnMmDs-30" target="6jrUPelpAg_V0vbnMmDs-32" edge="1">
          <mxGeometry relative="1" as="geometry" />
        </mxCell>
        <mxCell id="6jrUPelpAg_V0vbnMmDs-30" value="originalArray&lt;br&gt;filteredArray" style="shape=document;whiteSpace=wrap;html=1;boundedLbl=1;" parent="1" vertex="1">
          <mxGeometry x="510" y="770" width="160" height="80" as="geometry" />
        </mxCell>
        <mxCell id="6jrUPelpAg_V0vbnMmDs-32" value="end" style="ellipse;whiteSpace=wrap;html=1;" parent="1" vertex="1">
          <mxGeometry x="320" y="770" width="80" height="80" as="geometry" />
        </mxCell>
        <mxCell id="tUFwnBrAKpblymuU3KIJ-2" value="Создать новый массив из строк имеющегося массива строк, длина которых меньше, либо равна 3 символам" style="text;html=1;strokeColor=none;fillColor=none;align=left;verticalAlign=top;whiteSpace=wrap;rounded=0;fontStyle=1;fontSize=16;" vertex="1" parent="1">
          <mxGeometry x="440" y="20" width="387" height="80" as="geometry" />
        </mxCell>
        <mxCell id="tUFwnBrAKpblymuU3KIJ-6" value="" style="edgeStyle=orthogonalEdgeStyle;rounded=0;orthogonalLoop=1;jettySize=auto;html=1;" edge="1" parent="1" source="tUFwnBrAKpblymuU3KIJ-3" target="tUFwnBrAKpblymuU3KIJ-5">
          <mxGeometry relative="1" as="geometry" />
        </mxCell>
        <mxCell id="tUFwnBrAKpblymuU3KIJ-42" style="edgeStyle=orthogonalEdgeStyle;rounded=0;orthogonalLoop=1;jettySize=auto;html=1;entryX=0;entryY=0.5;entryDx=0;entryDy=0;" edge="1" parent="1" source="tUFwnBrAKpblymuU3KIJ-3" target="tUFwnBrAKpblymuU3KIJ-40">
          <mxGeometry relative="1" as="geometry" />
        </mxCell>
        <mxCell id="tUFwnBrAKpblymuU3KIJ-3" value="Для каждого элемента&lt;br&gt;массива originalArray" style="shape=hexagon;perimeter=hexagonPerimeter2;whiteSpace=wrap;html=1;fixedSize=1;" vertex="1" parent="1">
          <mxGeometry x="90" y="270" width="240" height="80" as="geometry" />
        </mxCell>
        <mxCell id="tUFwnBrAKpblymuU3KIJ-8" value="" style="edgeStyle=orthogonalEdgeStyle;rounded=0;orthogonalLoop=1;jettySize=auto;html=1;entryX=0.5;entryY=0;entryDx=0;entryDy=0;" edge="1" parent="1" source="tUFwnBrAKpblymuU3KIJ-5" target="tUFwnBrAKpblymuU3KIJ-38">
          <mxGeometry relative="1" as="geometry">
            <mxPoint x="210" y="550" as="targetPoint" />
          </mxGeometry>
        </mxCell>
        <mxCell id="tUFwnBrAKpblymuU3KIJ-9" value="Да" style="edgeLabel;html=1;align=center;verticalAlign=middle;resizable=0;points=[];" vertex="1" connectable="0" parent="tUFwnBrAKpblymuU3KIJ-8">
          <mxGeometry x="-0.0909" y="-2" relative="1" as="geometry">
            <mxPoint as="offset" />
          </mxGeometry>
        </mxCell>
        <mxCell id="tUFwnBrAKpblymuU3KIJ-10" style="edgeStyle=orthogonalEdgeStyle;rounded=0;orthogonalLoop=1;jettySize=auto;html=1;entryX=0;entryY=0.5;entryDx=0;entryDy=0;exitX=0;exitY=0.5;exitDx=0;exitDy=0;" edge="1" parent="1" source="tUFwnBrAKpblymuU3KIJ-5" target="tUFwnBrAKpblymuU3KIJ-3">
          <mxGeometry relative="1" as="geometry">
            <Array as="points">
              <mxPoint x="40" y="440" />
              <mxPoint x="40" y="310" />
            </Array>
          </mxGeometry>
        </mxCell>
        <mxCell id="tUFwnBrAKpblymuU3KIJ-11" value="Нет" style="edgeLabel;html=1;align=center;verticalAlign=middle;resizable=0;points=[];" vertex="1" connectable="0" parent="tUFwnBrAKpblymuU3KIJ-10">
          <mxGeometry x="-0.7143" y="-1" relative="1" as="geometry">
            <mxPoint y="-8" as="offset" />
          </mxGeometry>
        </mxCell>
        <mxCell id="tUFwnBrAKpblymuU3KIJ-5" value="Длинна элемента&lt;br&gt;&amp;lt;= 3?" style="rhombus;whiteSpace=wrap;html=1;" vertex="1" parent="1">
          <mxGeometry x="130" y="400" width="160" height="80" as="geometry" />
        </mxCell>
        <mxCell id="tUFwnBrAKpblymuU3KIJ-12" style="edgeStyle=orthogonalEdgeStyle;rounded=0;orthogonalLoop=1;jettySize=auto;html=1;entryX=0;entryY=0.5;entryDx=0;entryDy=0;exitX=0;exitY=0.5;exitDx=0;exitDy=0;" edge="1" parent="1" source="tUFwnBrAKpblymuU3KIJ-38" target="tUFwnBrAKpblymuU3KIJ-3">
          <mxGeometry relative="1" as="geometry">
            <mxPoint x="130" y="580" as="sourcePoint" />
            <Array as="points">
              <mxPoint x="40" y="580" />
              <mxPoint x="40" y="310" />
            </Array>
          </mxGeometry>
        </mxCell>
        <mxCell id="tUFwnBrAKpblymuU3KIJ-15" value="" style="edgeStyle=orthogonalEdgeStyle;rounded=0;orthogonalLoop=1;jettySize=auto;html=1;" edge="1" parent="1" source="tUFwnBrAKpblymuU3KIJ-16" target="tUFwnBrAKpblymuU3KIJ-21">
          <mxGeometry relative="1" as="geometry" />
        </mxCell>
        <mxCell id="tUFwnBrAKpblymuU3KIJ-33" value="" style="edgeStyle=orthogonalEdgeStyle;rounded=0;orthogonalLoop=1;jettySize=auto;html=1;exitX=1;exitY=0.5;exitDx=0;exitDy=0;entryX=1;entryY=0.5;entryDx=0;entryDy=0;" edge="1" parent="1" source="tUFwnBrAKpblymuU3KIJ-16" target="6jrUPelpAg_V0vbnMmDs-30">
          <mxGeometry relative="1" as="geometry">
            <Array as="points">
              <mxPoint x="760" y="440" />
              <mxPoint x="760" y="810" />
            </Array>
          </mxGeometry>
        </mxCell>
        <mxCell id="tUFwnBrAKpblymuU3KIJ-16" value="Для каждого элемента&lt;br&gt;массива originalArray" style="shape=hexagon;perimeter=hexagonPerimeter2;whiteSpace=wrap;html=1;fixedSize=1;" vertex="1" parent="1">
          <mxGeometry x="470" y="400" width="240" height="80" as="geometry" />
        </mxCell>
        <mxCell id="tUFwnBrAKpblymuU3KIJ-17" value="" style="edgeStyle=orthogonalEdgeStyle;rounded=0;orthogonalLoop=1;jettySize=auto;html=1;" edge="1" parent="1" source="tUFwnBrAKpblymuU3KIJ-21" target="tUFwnBrAKpblymuU3KIJ-23">
          <mxGeometry relative="1" as="geometry" />
        </mxCell>
        <mxCell id="tUFwnBrAKpblymuU3KIJ-18" value="Да" style="edgeLabel;html=1;align=center;verticalAlign=middle;resizable=0;points=[];" vertex="1" connectable="0" parent="tUFwnBrAKpblymuU3KIJ-17">
          <mxGeometry x="-0.0909" y="-2" relative="1" as="geometry">
            <mxPoint as="offset" />
          </mxGeometry>
        </mxCell>
        <mxCell id="tUFwnBrAKpblymuU3KIJ-19" style="edgeStyle=orthogonalEdgeStyle;rounded=0;orthogonalLoop=1;jettySize=auto;html=1;entryX=0;entryY=0.5;entryDx=0;entryDy=0;exitX=0;exitY=0.5;exitDx=0;exitDy=0;" edge="1" parent="1" source="tUFwnBrAKpblymuU3KIJ-21" target="tUFwnBrAKpblymuU3KIJ-16">
          <mxGeometry relative="1" as="geometry">
            <Array as="points">
              <mxPoint x="420" y="570" />
              <mxPoint x="420" y="440" />
            </Array>
          </mxGeometry>
        </mxCell>
        <mxCell id="tUFwnBrAKpblymuU3KIJ-20" value="Нет" style="edgeLabel;html=1;align=center;verticalAlign=middle;resizable=0;points=[];" vertex="1" connectable="0" parent="tUFwnBrAKpblymuU3KIJ-19">
          <mxGeometry x="-0.7143" y="-1" relative="1" as="geometry">
            <mxPoint y="-12" as="offset" />
          </mxGeometry>
        </mxCell>
        <mxCell id="tUFwnBrAKpblymuU3KIJ-21" value="Длинна элемента&lt;br&gt;&amp;lt;= 3?" style="rhombus;whiteSpace=wrap;html=1;" vertex="1" parent="1">
          <mxGeometry x="510" y="530" width="160" height="80" as="geometry" />
        </mxCell>
        <mxCell id="tUFwnBrAKpblymuU3KIJ-22" style="edgeStyle=orthogonalEdgeStyle;rounded=0;orthogonalLoop=1;jettySize=auto;html=1;entryX=0;entryY=0.5;entryDx=0;entryDy=0;exitX=0;exitY=0.5;exitDx=0;exitDy=0;" edge="1" parent="1" source="tUFwnBrAKpblymuU3KIJ-23" target="tUFwnBrAKpblymuU3KIJ-16">
          <mxGeometry relative="1" as="geometry">
            <Array as="points">
              <mxPoint x="420" y="695" />
              <mxPoint x="420" y="440" />
            </Array>
          </mxGeometry>
        </mxCell>
        <mxCell id="tUFwnBrAKpblymuU3KIJ-23" value="Добавляем элемент в массив filteredArray&amp;nbsp;" style="whiteSpace=wrap;html=1;" vertex="1" parent="1">
          <mxGeometry x="510" y="665" width="160" height="60" as="geometry" />
        </mxCell>
        <mxCell id="tUFwnBrAKpblymuU3KIJ-44" value="" style="edgeStyle=orthogonalEdgeStyle;rounded=0;orthogonalLoop=1;jettySize=auto;html=1;" edge="1" parent="1" source="tUFwnBrAKpblymuU3KIJ-26" target="tUFwnBrAKpblymuU3KIJ-43">
          <mxGeometry relative="1" as="geometry" />
        </mxCell>
        <mxCell id="tUFwnBrAKpblymuU3KIJ-26" value="start" style="ellipse;whiteSpace=wrap;html=1;" vertex="1" parent="1">
          <mxGeometry x="150" y="40" width="120" height="80" as="geometry" />
        </mxCell>
        <mxCell id="tUFwnBrAKpblymuU3KIJ-38" value="Увеличиваем count на 1" style="whiteSpace=wrap;html=1;" vertex="1" parent="1">
          <mxGeometry x="130" y="550" width="160" height="60" as="geometry" />
        </mxCell>
        <mxCell id="tUFwnBrAKpblymuU3KIJ-41" value="" style="edgeStyle=orthogonalEdgeStyle;rounded=0;orthogonalLoop=1;jettySize=auto;html=1;" edge="1" parent="1" source="tUFwnBrAKpblymuU3KIJ-40" target="tUFwnBrAKpblymuU3KIJ-16">
          <mxGeometry relative="1" as="geometry" />
        </mxCell>
        <mxCell id="tUFwnBrAKpblymuU3KIJ-40" value="Создаем массив filteredArray размером count" style="whiteSpace=wrap;html=1;" vertex="1" parent="1">
          <mxGeometry x="500" y="280" width="180" height="60" as="geometry" />
        </mxCell>
        <mxCell id="tUFwnBrAKpblymuU3KIJ-45" value="" style="edgeStyle=orthogonalEdgeStyle;rounded=0;orthogonalLoop=1;jettySize=auto;html=1;" edge="1" parent="1" source="tUFwnBrAKpblymuU3KIJ-43" target="tUFwnBrAKpblymuU3KIJ-3">
          <mxGeometry relative="1" as="geometry" />
        </mxCell>
        <mxCell id="tUFwnBrAKpblymuU3KIJ-43" value="originalArray = [&quot;apple&quot;, &quot;cat&quot;, &quot;dog&quot;, &quot;banana&quot;, &quot;sky&quot;, &quot;cup&quot;]&lt;br style=&quot;border-color: var(--border-color);&quot;&gt;count = 0" style="whiteSpace=wrap;html=1;" vertex="1" parent="1">
          <mxGeometry x="50" y="160" width="320" height="60" as="geometry" />
        </mxCell>
      </root>
    </mxGraphModel>
  </diagram>
</mxfile>
